<svg width="47" height="45" viewBox="0 0 47 45" fill="none" xmlns="http://www.w3.org/2000/svg">
<line x1="8" y1="21.5" x2="39" y2="21.5" stroke="black"/>
<line x1="23.5" y1="38" x2="23.5" y2="8" stroke="black"/>
<path d="M45.9514 15.8337C46.4095 17.2495 46.7255 18.7251 46.8835 20.2452L46.3861 20.2969C46.4614 21.0213 46.5 21.7563 46.5 22.5C46.5 23.2437 46.4614 23.9787 46.3861 24.7031L46.8835 24.7548C46.7255 26.2749 46.4095 27.7505 45.9514 29.1663L45.4757 29.0124C45.02 30.4209 44.4202 31.7692 43.6926 33.0416L44.1267 33.2898C43.379 34.5973 42.4996 35.8259 41.5057 36.9594L41.1298 36.6297C40.1624 37.7328 39.0839 38.744 37.9104 39.6475L38.2154 40.0436C37.0309 40.9556 35.7521 41.7599 34.3952 42.4409L34.1709 41.994C32.8676 42.6481 31.4906 43.1862 30.0548 43.5938L30.1913 44.0748C28.7649 44.4797 27.2818 44.7585 25.7562 44.8976L25.7108 44.3997C24.9833 44.4661 24.2459 44.5 23.5 44.5C22.7541 44.5 22.0167 44.4661 21.2892 44.3997L21.2438 44.8976C19.7182 44.7585 18.2351 44.4797 16.8087 44.0748L16.9452 43.5938C15.5094 43.1862 14.1324 42.6481 12.8291 41.994L12.6048 42.4409C11.2479 41.7599 9.96908 40.9556 8.78457 40.0436L9.0896 39.6475C7.91615 38.744 6.83757 37.7328 5.87023 36.6297L5.49431 36.9594C4.50036 35.8259 3.621 34.5973 2.87331 33.2898L3.30735 33.0416C2.57978 31.7692 1.98 30.4209 1.52429 29.0124L1.04857 29.1663C0.590507 27.7505 0.274511 26.2749 0.116533 24.7548L0.613855 24.7031C0.538564 23.9787 0.5 23.2437 0.5 22.5C0.5 21.7563 0.538564 21.0213 0.613855 20.2969L0.116534 20.2452C0.274512 18.7251 0.590508 17.2495 1.04857 15.8337L1.52429 15.9876C1.98 14.5791 2.57978 13.2308 3.30736 11.9584L2.87331 11.7102C3.621 10.4027 4.50036 9.17407 5.49431 8.04063L5.87023 8.37029C6.83757 7.2672 7.91615 6.25599 9.0896 5.35254L8.78457 4.95636C9.96908 4.0444 11.2479 3.24014 12.6048 2.55913L12.8291 3.006C14.1324 2.35188 15.5094 1.81381 16.9452 1.40621L16.8087 0.92522C18.2351 0.520281 19.7182 0.241492 21.2438 0.102355L21.2892 0.600289C22.0167 0.533946 22.7541 0.5 23.5 0.5C24.2459 0.5 24.9833 0.533946 25.7108 0.600289L25.7562 0.102355C27.2818 0.241492 28.7649 0.520281 30.1913 0.92522L30.0548 1.40621C31.4906 1.81381 32.8676 2.35188 34.1709 3.006L34.3952 2.55913C35.7521 3.24015 37.0309 4.0444 38.2154 4.95636L37.9104 5.35255C39.0839 6.25599 40.1624 7.2672 41.1298 8.37029L41.5057 8.04063C42.4996 9.17407 43.379 10.4027 44.1267 11.7102L43.6926 11.9584C44.4202 13.2308 45.02 14.5791 45.4757 15.9876L45.9514 15.8337Z" stroke="black" stroke-dasharray="5 5"/>
</svg>
